<svg width="15" height="15" viewBox="0 0 15 15" fill="none" xmlns="http://www.w3.org/2000/svg">
<path d="M13.7976 3.85382C13.754 3.89735 13.7023 3.93188 13.6455 3.95543C13.5886 3.97899 13.5276 3.99112 13.4661 3.99112C13.4045 3.99112 13.3436 3.97899 13.2867 3.95543C13.2298 3.93188 13.1781 3.89735 13.1346 3.85382L11.1459 1.86514C11.0589 1.77706 11.0103 1.65812 11.0107 1.53429C11.011 1.41046 11.0604 1.29181 11.1479 1.20425C11.2355 1.11669 11.3541 1.06732 11.478 1.06694C11.6018 1.06656 11.7207 1.11519 11.8088 1.20221L13.7976 3.19089C13.8411 3.23441 13.8756 3.28609 13.8992 3.34296C13.9227 3.39984 13.9349 3.46079 13.9349 3.52235C13.9349 3.58391 13.9227 3.64487 13.8992 3.70174C13.8756 3.75861 13.8411 3.81029 13.7976 3.85382ZM3.85384 1.20221C3.76593 1.11432 3.64671 1.06494 3.5224 1.06494C3.39809 1.06494 3.27887 1.11432 3.19097 1.20221L1.20224 3.19089C1.11433 3.2788 1.06494 3.39803 1.06494 3.52235C1.06494 3.64667 1.11433 3.76591 1.20224 3.85382C1.29015 3.94173 1.40938 3.99111 1.5337 3.99111C1.65803 3.99111 1.77726 3.94173 1.86517 3.85382L3.85384 1.86514C3.89737 1.82162 3.9319 1.76994 3.95546 1.71307C3.97902 1.65619 3.99114 1.59524 3.99114 1.53368C3.99114 1.47212 3.97902 1.41116 3.95546 1.35429C3.9319 1.29742 3.89737 1.24574 3.85384 1.20221ZM13.1231 7.35608C13.1243 7.40389 13.1249 7.45182 13.125 7.49987C13.125 7.54792 13.1243 7.59585 13.1231 7.64366C13.123 7.64999 13.1226 7.65626 13.1224 7.66253C13.1213 7.70454 13.1197 7.74653 13.1176 7.7885L13.1174 7.79278C13.0449 9.18145 12.4607 10.4941 11.4774 11.4774C10.4942 12.4606 9.18154 13.0449 7.79286 13.1173L7.78853 13.1175C7.74663 13.1197 7.70474 13.1212 7.66261 13.1223C7.65634 13.1225 7.65007 13.1229 7.64374 13.1231C7.59589 13.1242 7.54796 13.1248 7.49995 13.1249C7.45191 13.1249 7.40398 13.1243 7.35616 13.1231C7.34984 13.1229 7.34357 13.1225 7.3373 13.1223C7.29529 13.1212 7.25329 13.1196 7.21132 13.1175L7.20704 13.1173C5.81836 13.0449 4.50573 12.4607 3.52245 11.4774C2.53917 10.4941 1.95494 9.18146 1.88251 7.79278L1.88228 7.78844C1.88021 7.74649 1.87861 7.70452 1.87747 7.66253C1.8773 7.65626 1.87695 7.64999 1.87677 7.64366C1.87556 7.59585 1.87493 7.54792 1.87489 7.49987C1.87489 7.45182 1.8755 7.40389 1.87671 7.35608C1.87689 7.34975 1.87724 7.34348 1.87741 7.33721C1.87859 7.29514 1.88011 7.25319 1.88222 7.21124L1.88245 7.20696C1.9549 5.81829 2.53913 4.50566 3.52241 3.52238C4.50568 2.53911 5.81831 1.95487 7.20698 1.88243L7.21132 1.88219C7.25327 1.88013 7.29525 1.87853 7.33724 1.87739C7.34351 1.87721 7.34978 1.87686 7.35611 1.87669C7.40392 1.87551 7.45185 1.87491 7.49989 1.87487C7.54794 1.87487 7.59587 1.87548 7.64368 1.87669C7.65001 1.87686 7.65628 1.87721 7.66255 1.87739C7.70462 1.87856 7.74657 1.88009 7.78853 1.88219L7.7928 1.88243C9.18148 1.95486 10.4941 2.53909 11.4774 3.52237C12.4607 4.50565 13.0449 5.81828 13.1173 7.20696L13.1176 7.2113C13.1197 7.25319 13.1212 7.29508 13.1224 7.33721C13.1226 7.34348 13.1229 7.34975 13.1231 7.35608H13.1231ZM11.2499 7.49987C11.2499 7.37555 11.2005 7.25632 11.1126 7.16841C11.0247 7.08051 10.9055 7.03112 10.7811 7.03112H7.96864V4.21862C7.96864 4.0943 7.91926 3.97507 7.83135 3.88716C7.74344 3.79926 7.62422 3.74987 7.49989 3.74987C7.37557 3.74987 7.25635 3.79926 7.16844 3.88716C7.08053 3.97507 7.03114 4.0943 7.03114 4.21862V7.49987C7.03114 7.62419 7.08053 7.74342 7.16844 7.83133C7.25635 7.91923 7.37557 7.96862 7.49989 7.96862H10.7811C10.9055 7.96862 11.0247 7.91923 11.1126 7.83133C11.2005 7.74342 11.2499 7.62419 11.2499 7.49987Z" fill="#6B6B6B"/>
</svg>
