<svg width="9" height="14" viewBox="0 0 9 14" fill="none" xmlns="http://www.w3.org/2000/svg">
<path d="M7.97083 13.5834H1.17917C0.805625 13.5834 0.5 13.2777 0.5 12.9042V1.35837C0.5 0.984824 0.805625 0.679199 1.17917 0.679199H7.97083C8.34437 0.679199 8.65 0.984824 8.65 1.35837V12.9042C8.65 13.2777 8.34437 13.5834 7.97083 13.5834Z" fill="#CFD8DC"/>
<path d="M5.9332 3.05625H3.21654C3.01279 3.05625 2.87695 2.92042 2.87695 2.71667V0.339583C2.87695 0.135833 3.01279 0 3.21654 0H5.9332C6.13695 0 6.27279 0.135833 6.27279 0.339583V2.71667C6.27279 2.92042 6.13695 3.05625 5.9332 3.05625Z" fill="#CFD8DC"/>
<path d="M7.97083 13.5834H1.17917C0.805625 13.5834 0.5 13.2778 0.5 12.9042V6.45215H8.65V12.9042C8.65 13.2778 8.34437 13.5834 7.97083 13.5834Z" fill="#6B6B6B"/>
</svg>
