<svg width="14" height="14" viewBox="0 0 14 14" fill="none" xmlns="http://www.w3.org/2000/svg">
<path d="M6.99986 9.80002C6.81687 9.80084 6.63583 9.83772 6.4671 9.90853C6.29836 9.97934 6.14523 10.0827 6.01645 10.2127C5.88768 10.3427 5.78578 10.4968 5.71658 10.6662C5.64738 10.8356 5.61224 11.017 5.61316 11.2C5.61316 11.9728 6.23406 12.6 6.99986 12.6C7.18279 12.5991 7.36375 12.5622 7.53241 12.4913C7.70106 12.4205 7.85411 12.3171 7.98281 12.1871C8.11152 12.0571 8.21335 11.903 8.28251 11.7336C8.35166 11.5643 8.38678 11.383 8.38586 11.2C8.38586 10.4265 7.76566 9.80002 6.99986 9.80002ZM4.05986 8.23062L5.03986 9.22042C5.29599 8.96067 5.60119 8.75441 5.93773 8.61362C6.27426 8.47284 6.63542 8.40034 7.00021 8.40034C7.365 8.40034 7.72616 8.47284 8.06269 8.61362C8.39923 8.75441 8.70443 8.96067 8.96056 9.22042L9.93986 8.23062C9.55575 7.84102 9.09804 7.53165 8.59333 7.32049C8.08861 7.10933 7.54696 7.00059 6.99986 7.00059C6.45275 7.00059 5.91111 7.10933 5.40639 7.32049C4.90168 7.53165 4.44397 7.84102 4.05986 8.23062ZM2.09986 6.24962L3.07986 7.23942C3.59199 6.72006 4.20223 6.30766 4.87512 6.02618C5.548 5.74469 6.27012 5.59974 6.99951 5.59974C7.7289 5.59974 8.45102 5.74469 9.1239 6.02618C9.79679 6.30766 10.407 6.72006 10.9192 7.23942L11.8999 6.24962C11.2596 5.60038 10.4968 5.08484 9.65558 4.73296C8.8144 4.38108 7.91167 4.19987 6.99986 4.19987C6.08804 4.19987 5.18532 4.38108 4.34414 4.73296C3.50295 5.08484 2.74009 5.60038 2.09986 6.24962ZM0.13916 4.27002L1.11916 5.25982C1.88743 4.4806 2.80292 3.86185 3.8124 3.43952C4.82189 3.01719 5.90524 2.79971 6.99951 2.79971C8.09378 2.79971 9.17713 3.01719 10.1866 3.43952C11.1961 3.86185 12.1116 4.4806 12.8799 5.25982L13.8599 4.27002C12.9635 3.36094 11.8955 2.63906 10.7178 2.14635C9.54005 1.65363 8.27614 1.3999 6.99951 1.3999C5.72287 1.3999 4.45897 1.65363 3.28125 2.14635C2.10352 2.63906 1.03547 3.36094 0.13916 4.27002Z" fill="#6B6B6B"/>
</svg>
